<svg width="999" height="400" xmlns="http://www.w3.org/2000/svg" version="1.1">
 <g>
  <title>Layer 1</title>
  <g id="svg_4" transform="matrix(0.834 0 0 0.834 82.514 184.165)">
   <svg y="-210.97296" x="-0.50579" id="svg_24" width="1000" height="457" preserveAspectRatio="xMidYMid meet" data-background-color="#1f0f53" viewBox="0 0 396 181" version="1.1" xmlns:svgjs="http://svgjs.com/svgjs" xmlns:xlink="http://www.w3.org/1999/xlink" xmlns="http://www.w3.org/2000/svg">

    <g transform="matrix(1,0,0,1,0.24925933126542077,0.12649077950078436)" id="svg_1">
     <svg id="svg_25" width="395.52" height="180.74702" viewBox="0 0 395.52 180.74701844099843">
      <svg id="svg_26" width="395.52" height="180.74702" viewBox="0 0 395.52 180.74701844099843">
       <g id="svg_12" transform="matrix(1,0,0,1,0,126.12542061701421)">
        <svg id="svg_27" width="395.52" height="54.6216" viewBox="0 0 395.52 54.62159782398422">
         <svg id="svg_28" width="395.52" height="54.6216" viewBox="0 0 395.52 54.62159782398422">
          <svg id="svg_29" width="395.52" height="54.6216" viewBox="0 0 395.52 54.62159782398422">
           <svg id="svg_30" data-palette-color="#ffdb99" height="54.6216" viewBox="0.850000666675 -39.05 284.772939878445 39.33731343283582" width="395.52">
            <path id="svg_17" data-fill-palette-color="primary" class="undefined-text-0" fill="#ffdb99" d="m10.75,0l0,0q-0.75,0 -1.35,-0.43q-0.6,-0.42 -0.85,-1.07l0,0l-7.55,-22.6q-0.35,-1.45 0.05,-2.35q0.4,-0.9 1.7,-0.9l0,0q0.85,0 1.45,0.47q0.6,0.48 0.95,1.53l0,0l6.5,20.25l-1.55,0l6.15,-20.5q0.2,-0.75 0.78,-1.25q0.57,-0.5 1.52,-0.5l0,0q0.9,0 1.48,0.47q0.57,0.48 0.77,1.28l0,0l5.3,19.5l-0.8,0l6.2,-19.25q0.65,-2 2.35,-2l0,0q1.3,0 1.78,0.92q0.47,0.93 -0.03,2.33l0,0l-7.55,22.6q-0.2,0.65 -0.8,1.07q-0.6,0.43 -1.35,0.43l0,0q-0.75,0 -1.4,-0.43q-0.65,-0.42 -0.85,-1.07l0,0l-5.5,-19.7l0.5,0l-5.7,19.7q-0.2,0.65 -0.8,1.07q-0.6,0.43 -1.4,0.43zm57.4,0.2l0,0q-4,0 -7.13,-1.78q-3.12,-1.77 -4.9,-4.9q-1.77,-3.12 -1.77,-7.17l0,0q0,-4.1 1.77,-7.23q1.78,-3.12 4.9,-4.9q3.13,-1.77 7.13,-1.77l0,0q4,0 7.1,1.77q3.09,1.78 4.9,4.9q1.8,3.13 1.8,7.23l0,0q0,4.05 -1.78,7.17q-1.77,3.13 -4.87,4.9q-3.1,1.78 -7.15,1.78zm0,-4.15l0,0q2.69,0 4.8,-1.25q2.1,-1.25 3.3,-3.43q1.2,-2.17 1.2,-5.02l0,0q0,-2.85 -1.2,-5.05q-1.2,-2.2 -3.3,-3.45q-2.11,-1.25 -4.8,-1.25l0,0q-2.7,0 -4.8,1.25q-2.1,1.25 -3.3,3.45q-1.2,2.2 -1.2,5.05l0,0q0,2.85 1.2,5.02q1.2,2.18 3.3,3.43q2.1,1.25 4.8,1.25zm40.64,-13.05l-2.45,0q0.05,-3.05 1.53,-5.45q1.47,-2.4 3.95,-3.8q2.47,-1.4 5.42,-1.4l0,0q2.75,0 4.15,0.87q1.4,0.88 1.1,2.18l0,0q-0.2,0.7 -0.62,1.05q-0.43,0.35 -1.03,0.4q-0.6,0.05 -1.3,-0.1l0,0q-3.1,-0.5 -5.52,0.15q-2.43,0.65 -3.83,2.2q-1.4,1.55 -1.4,3.9l0,0zm-2.3,17l0,0q-1.1,0 -1.7,-0.58q-0.6,-0.57 -0.6,-1.72l0,0l0,-22.75q0,-1.1 0.6,-1.7q0.6,-0.6 1.7,-0.6l0,0q1.15,0 1.73,0.57q0.57,0.58 0.57,1.73l0,0l0,22.75q0,1.1 -0.57,1.7q-0.58,0.6 -1.73,0.6zm56.4,-24l-15.95,14.3l-2.85,-3.15l15.95,-14.25q0.7,-0.65 1.52,-0.63q0.83,0.03 1.43,0.73l0,0q0.65,0.7 0.62,1.52q-0.02,0.83 -0.72,1.48l0,0zm-17.95,24l0,0q-1,0 -1.63,-0.63q-0.62,-0.62 -0.62,-1.62l0,0l0,-34.55q0,-1 0.62,-1.63q0.63,-0.62 1.63,-0.62l0,0q1.05,0 1.67,0.62q0.63,0.63 0.63,1.63l0,0l0,34.55q0,1 -0.63,1.62q-0.62,0.63 -1.67,0.63zm18.1,-0.25l0,0q-0.75,0.6 -1.65,0.53q-0.9,-0.08 -1.5,-0.83l0,0l-10.45,-12.9l3.2,-3l10.7,13.15q0.6,0.7 0.52,1.55q-0.07,0.85 -0.82,1.5zm25.89,0.25l0,0q-0.9,0 -1.57,-0.65q-0.68,-0.65 -0.68,-1.7l0,0l0,-24.9q0,-3.55 1.35,-6.2q1.35,-2.65 3.83,-4.13q2.47,-1.47 5.87,-1.47l0,0q1,0 1.68,0.6q0.67,0.6 0.67,1.5l0,0q0,0.9 -0.67,1.52q-0.68,0.63 -1.68,0.63l0,0q-2,0 -3.42,0.9q-1.43,0.9 -2.18,2.5q-0.75,1.6 -0.75,3.75l0,0l0,25.3q0,1.05 -0.65,1.7q-0.65,0.65 -1.8,0.65zm7.85,-22.35l-12.6,0q-0.95,0 -1.55,-0.58q-0.6,-0.57 -0.6,-1.37l0,0q0,-0.95 0.6,-1.5q0.6,-0.55 1.55,-0.55l0,0l12.6,0q0.95,0 1.55,0.55q0.6,0.55 0.6,1.5l0,0q0,0.8 -0.6,1.37q-0.6,0.58 -1.55,0.58l0,0zm34.45,22.55l0,0q-4,0 -7.13,-1.78q-3.12,-1.77 -4.9,-4.9q-1.77,-3.12 -1.77,-7.17l0,0q0,-4.1 1.77,-7.23q1.78,-3.12 4.9,-4.9q3.13,-1.77 7.13,-1.77l0,0q4,0 7.1,1.77q3.1,1.78 4.9,4.9q1.8,3.13 1.8,7.23l0,0q0,4.05 -1.78,7.17q-1.77,3.13 -4.87,4.9q-3.1,1.78 -7.15,1.78zm0,-4.15l0,0q2.7,0 4.8,-1.25q2.1,-1.25 3.3,-3.43q1.2,-2.17 1.2,-5.02l0,0q0,-2.85 -1.2,-5.05q-1.2,-2.2 -3.3,-3.45q-2.1,-1.25 -4.8,-1.25l0,0q-2.7,0 -4.8,1.25q-2.1,1.25 -3.3,3.45q-1.2,2.2 -1.2,5.05l0,0q0,2.85 1.2,5.02q1.2,2.18 3.3,3.43q2.1,1.25 4.8,1.25zm40.64,-13.05l-2.45,0q0.05,-3.05 1.53,-5.45q1.47,-2.4 3.95,-3.8q2.47,-1.4 5.42,-1.4l0,0q2.75,0 4.15,0.87q1.4,0.88 1.1,2.18l0,0q-0.2,0.7 -0.62,1.05q-0.43,0.35 -1.03,0.4q-0.6,0.05 -1.3,-0.1l0,0q-3.1,-0.5 -5.52,0.15q-2.43,0.65 -3.83,2.2q-1.4,1.55 -1.4,3.9l0,0zm-2.3,17l0,0q-1.1,0 -1.7,-0.58q-0.6,-0.57 -0.6,-1.72l0,0l0,-22.75q0,-1.1 0.6,-1.7q0.6,-0.6 1.7,-0.6l0,0q1.15,0 1.73,0.57q0.57,0.58 0.57,1.73l0,0l0,22.75q0,1.1 -0.57,1.7q-0.58,0.6 -1.73,0.6z"/>
           </svg>
          </svg>
         </svg>
        </svg>
       </g>
       <g id="svg_20" transform="matrix(1,0,0,1,155.85763101077993,0)">
        <svg id="svg_31" width="83.80474" height="113.23057" viewBox="0 0 83.80473797844016 113.23057228911931">
         <svg id="svg_21" data-fill-palette-color="accent" fill="#ff5db2" class="icon-icon-0" width="67.80474" height="113.23057" xml:space="preserve" enable-background="new 0 0 90 90" viewBox="24.799999999999997 11.1 40.599999999999994 67.80000000000001" y="0" x="8" version="1.1" xmlns:xlink="http://www.w3.org/1999/xlink" xmlns="http://www.w3.org/2000/svg">
          <path id="svg_32" data-fill-palette-color="accent" fill="#ff5db2" d="m62.6,58l-35.2,0l-2.6,0l0,2.3l0,18.6l2.6,0l0,-18.6l5.6,0l0,4l0,8.1l0,1.6l0,0l0,3.6l11.4,0l1.4,0l11.4,0l0,-2.9l0,0l0,-14.4l5.6,0l0,18.6l2.6,0l0,-18.6l0,-2.3l-2.8,0zm-27.9,2.3c-0.2,0.2 -0.3,0.4 -0.5,0.6l0,-0.6l0.5,0zm-0.5,3.8c0.3,-1.7 1.3,-3 2.6,-3.8l4.7,0c1.4,0.8 2.5,2.2 2.7,4l0,0l0,5.4c-1.2,-1.5 -3,-2.4 -4.9,-2.4c-2.1,0 -3.9,1 -5.1,2.6l0,-5.8zm10.1,8.6l0,0.4l-10,0c0.3,-2.6 2.4,-4.6 5,-4.6c2.5,0.1 4.5,1.8 5,4.2zm0,1.9l0,1.6l-10,0l0,-1.7l10,0.1l0,0zm-0.6,-14.3l2.5,0c-0.5,0.5 -0.9,1.1 -1.2,1.8c-0.4,-0.7 -0.8,-1.3 -1.3,-1.8zm1.9,4c0.2,-1.7 1.2,-3.2 2.7,-4l4.7,0c1.4,0.8 2.5,2.2 2.7,4l0,5.6c-1.2,-1.6 -3,-2.6 -5.1,-2.6c-2.1,0 -3.9,1.1 -5.1,2.7l0,-5.7l0.1,0zm0.1,8.9c0.3,-2.6 2.4,-4.6 5,-4.6s4.7,2 5,4.6l-10,0zm10.1,2.9l-10,0l0,-1.6l10,0l0,1.6zm0,-15.1c-0.2,-0.2 -0.4,-0.5 -0.6,-0.7l0.6,0l0,0.7zm-10.6,-23.7l0,0c6.7,0 12.2,-5.5 12.2,-12.3c0,-2.9 -0.8,-4.5 -1.5,-5.4c0,0 -0.1,-0.1 -0.2,-0.3l-0.1,-0.1c-0.9,-0.9 -3.8,-2.9 -10.4,-2.9c0,0 -0.1,0 -0.3,0c-2,0 -8.5,0.2 -10.5,3.3c-0.6,0.9 -1.4,2.5 -1.4,5.4c0,6.8 5.5,12.3 12.2,12.3zm-10,-17.1l0,0c1.8,-2.8 8.4,-2.9 9.8,-2.9c0.2,0 0.3,0 0.3,0c6.5,0 9.1,2.1 9.8,2.7l0.1,0.1c0.1,0.1 0.2,0.2 0.2,0.2c0.5,0.6 1.3,2 1.3,4.8c0,6.3 -5.1,11.5 -11.3,11.5l0,0c-6.2,0 -11.3,-5.1 -11.3,-11.5c-0.2,-2.9 0.6,-4.3 1.1,-4.9zm-4.2,37.6l1,-1c-3.6,-3.1 -5,-7.1 -4.2,-11.7c0.4,-2.2 1.1,-3.9 1.7,-5c0.1,-0.1 0.1,-0.2 0.2,-0.4c1,-2 2.6,-3.7 4.5,-5.1c2.7,3.1 6.7,5 11.1,5c4.3,0 8.3,-1.9 10.9,-4.8c1.8,1.4 3.2,3 4.2,4.9c0.1,0.1 0.1,0.3 0.2,0.4c0.5,1.1 1.3,2.9 1.7,5c0.8,4.6 -0.7,8.6 -4.2,11.7l1,1c6.9,-6 4.8,-13.6 3.2,-17.4l0,-13.4c0,-1.1 -0.9,-2 -2,-2l-0.4,0c-0.2,-7.7 -6.7,-13.9 -14.6,-13.9c-7.9,0 -14.4,6.2 -14.6,13.9l-0.4,0c-1.1,0 -2,0.9 -2,2l0,12.5c-1.8,3.3 -4.8,11.8 2.7,18.3zm29.2,-31.5c0.4,0 0.7,0.3 0.7,0.7l0,11c-1,-1.6 -2.3,-3 -3.9,-4.2c1.6,-2.1 2.6,-4.7 2.8,-7.4l0.4,0l0,-0.1zm-15,-13.8c7.3,0 13.2,5.8 13.2,12.9c0,7.1 -5.9,12.9 -13.2,12.9c-7.3,0 -13.2,-5.8 -13.2,-12.9c0,-7.1 5.9,-12.9 13.2,-12.9zm-15.7,14.5c0,-0.4 0.3,-0.7 0.7,-0.7l0.5,0c0.2,2.7 1.1,5.1 2.6,7.2c-1.5,1.1 -2.7,2.4 -3.8,3.8l0,-10.3zm27.4,28.9l0,-15.9c0,-0.6 -0.4,-1.1 -1,-1.1l-21.9,0c-0.5,0 -1,0.5 -1,1.1l0,15.8l-3.2,0l0,1.3c0,0.6 0.4,1.1 1,1.1l3.2,0l22,0l3.3,0c0.5,0 1,-0.5 1,-1.1l0,-1.3l-3.4,0l0,0.1zm-11.9,-5.8c-1,0 -1.7,-0.8 -1.7,-1.7c0,-1 0.8,-1.7 1.7,-1.7c1,0 1.7,0.8 1.7,1.7c0,0.9 -0.7,1.7 -1.7,1.7z"/>
         </svg>
        </svg>
       </g>
       <g id="svg_33">
        <rect id="svg_34" data-fill-palette-color="accent" fill="#ff5db2" x="239.66237" y="107.30474" height="4.92583" width="155.85763"/>
        <rect id="svg_35" data-fill-palette-color="accent" fill="#ff5db2" x="0" y="107.30474" height="4.92583" width="155.85763"/>
        <rect id="svg_36" data-fill-palette-color="accent" fill="#ff5db2" x="239.66237" y="97.45308" height="4.92583" width="155.85763"/>
        <rect id="svg_37" data-fill-palette-color="accent" fill="#ff5db2" x="0" y="97.45308" height="4.92583" width="155.85763"/>
       </g>
      </svg>
     </svg>
     <rect id="svg_38" stroke="transparent" fill="transparent" height="180.74702" width="395.52"/>
    </g>
   </svg>
  </g>
 </g>
</svg>
